<?xml version="1.0" encoding="utf-8"?>
<!-- Generator: Adobe Illustrator 22.1.0, SVG Export Plug-In . SVG Version: 6.00 Build 0)  -->
<svg version="1.1" id="Capa_1" xmlns="http://www.w3.org/2000/svg" xmlns:xlink="http://www.w3.org/1999/xlink" x="0px" y="0px"
	 viewBox="0 0 612 612" style="enable-background:new 0 0 612 612;" xml:space="preserve">
<style type="text/css">
	.st0{fill:#FFFFFF;}
</style>
<path class="st0" d="M0,0v612h612V0H0z M132.6,188.8h346.7c0.6,0,1.2,0.3,1.5,0.8L321.5,321.1l-6.7,5.5c-0.1,0.1-0.3,0.2-0.4,0.2
	l-0.6,0.4c-2.1,1.4-4.7,2.2-7.4,2.2h-0.1c-3.2,0-6.2-1-8.3-2.7L131.5,189.2C131.8,189,132.2,188.8,132.6,188.8z M130.8,207.5
	l119.4,98.4l-119.4,96.5V207.5z M481.2,421.3c0,1-0.9,1.9-1.9,1.9H132.7c-1,0-1.9-0.9-1.9-1.9V421l130.8-105.7l27.4,22.6
	c4.7,3.9,11,6,17.5,6c6.5,0,12.8-2.2,17.5-6.1l26.5-21.9l130.7,105V421.3z M481.2,402.4l-119.3-95.9l119.3-98.4V402.4z"/>
</svg>
