<?xml version="1.0" encoding="utf-8"?>
<!-- Generator: Adobe Illustrator 22.1.0, SVG Export Plug-In . SVG Version: 6.00 Build 0)  -->
<svg version="1.1" xmlns="http://www.w3.org/2000/svg" xmlns:xlink="http://www.w3.org/1999/xlink" x="0px" y="0px"
	 viewBox="0 0 612 612" style="enable-background:new 0 0 612 612;" xml:space="preserve">
<style type="text/css">
	.st0{fill:#2C0036;}
</style>
<g id="Capa_1">
	<path class="st0" d="M306.7,332.1L306.7,332.1c3,0,6-0.9,8.3-2.4l0.6-0.4c0.1-0.1,0.3-0.2,0.4-0.3l7.5-6.2l178-146.9
		c-0.4-0.5-1-0.9-1.7-0.9H112.5c-0.5,0-0.9,0.2-1.3,0.5l186.2,153.5C299.8,331,303.2,332.1,306.7,332.1z M110.5,195.9v217.7
		l133.4-107.8L110.5,195.9z M368.7,306.6l133.2,107.1v-217L368.7,306.6z M326.3,341.6c-5.3,4.4-12.3,6.8-19.6,6.8
		c-7.3,0-14.3-2.4-19.6-6.7l-30.6-25.2l-146.1,118v0.4c0,1.1,1,2.1,2.1,2.1h387.3c1.1,0,2.1-1,2.1-2.1v-0.3l-146-117.3L326.3,341.6z
		"/>
</g>
<g id="Layer_2">
</g>
</svg>
